<?xml version="1.0" standalone="no"?>
<!DOCTYPE svg PUBLIC "-//W3C//DTD SVG 1.1//EN" "http://www.w3.org/Graphics/SVG/1.1/DTD/svg11.dtd" >
<svg xmlns="http://www.w3.org/2000/svg">
<metadata>
This is a custom SVG webfont generated by Font Squirrel.
Copyright   : Copyright c 2011 by Cyreal wwwcyrealorg All rights reserved
Designer    : Cyreal wwwcyrealorg
Foundry     : Cyreal wwwcyrealorg
Foundry URL : httpcyrealorg
</metadata>
<defs>
<font id="VolkhovItalic" horiz-adv-x="753" >
<font-face units-per-em="2048" ascent="1638" descent="-410" />
<missing-glyph horiz-adv-x="493" />
<glyph unicode=" "  horiz-adv-x="493" />
<glyph unicode="&#x09;" horiz-adv-x="493" />
<glyph unicode="&#xa0;" horiz-adv-x="493" />
<glyph unicode="&#x22;" horiz-adv-x="747" d="M240 969l51 481h213l-162 -481h-102zM592 969l51 481h213l-162 -481h-102z" />
<glyph unicode="#" horiz-adv-x="1126" d="M47 0l160 412h-152l31 131h172l154 391h-191l31 131h211l145 369h131l-145 -369h248l145 369h131l-147 -369h170l-29 -131h-190l-156 -391h209l-31 -131h-229l-160 -412h-131l160 412h-248l-160 -412h-129zM387 543h250l154 391h-248z" />
<glyph unicode="$" horiz-adv-x="1153" d="M10 82l115 377h80v-330q39 -16 88 -25.5t102 -9.5l140 561q-51 37 -100.5 77t-88.5 87t-63.5 103.5t-24.5 130.5q0 94 36 165.5t99.5 122t149.5 77t186 30.5l37 143h119l-37 -143q92 -6 162.5 -23.5t126.5 -40.5l-113 -376h-78v313q-23 6 -57.5 10t-67.5 6l-133 -530 q53 -41 106.5 -86t95.5 -95.5t68.5 -110.5t26.5 -132q0 -98 -36 -170t-102.5 -121t-158.5 -74.5t-205 -29.5l-39 -158h-114l39 160q-92 6 -186.5 28.5t-172.5 63.5zM455 1104q0 -63 37.5 -116.5t97.5 -102.5l110 446q-49 -6 -94 -21.5t-78.5 -43t-53 -67.5t-19.5 -95z M512 102q51 8 97 26.5t81 48.5t56.5 70t21.5 95q0 76 -39 133t-98 107z" />
<glyph unicode="%" horiz-adv-x="1484" d="M193 0l1034 1436h133l-1030 -1436h-137zM199 967q0 94 24.5 181t71.5 154.5t115.5 107.5t158.5 40q92 0 146.5 -53.5t54.5 -157.5q0 -94 -24.5 -181t-71.5 -154.5t-117 -107.5t-158 -40q-90 0 -145 53.5t-55 157.5zM348 965q0 -61 18.5 -103.5t57.5 -42.5q43 0 80 42 t62.5 105.5t41 137.5t15.5 137t-18.5 103t-57.5 40q-43 0 -80 -38.5t-62.5 -100t-41 -136t-15.5 -144.5zM772 195q0 94 24.5 181t73 154.5t117 107.5t156.5 40q92 0 147.5 -52.5t55.5 -156.5q0 -94 -25 -181t-73 -154.5t-117.5 -107.5t-157.5 -40q-90 0 -145.5 52.5 t-55.5 156.5zM922 195q0 -63 17 -104.5t58 -41.5q43 0 79 42t62.5 104.5t42 136.5t15.5 137q0 66 -18.5 105.5t-57.5 39.5q-43 0 -79.5 -38.5t-62.5 -100t-41 -136t-15 -144.5z" />
<glyph unicode="&#x26;" horiz-adv-x="1554" d="M94 354q0 102 35 186.5t99.5 147t153.5 102t198 52.5l2 4q-104 23 -162 91.5t-58 160.5q0 166 129.5 259t348.5 93q156 0 241.5 -52t85.5 -138q0 -39 -16 -67t-44 -44t-61.5 -24.5t-70.5 -8.5h-13q-7 0 -14 2q18 49 19 94q0 59 -35 106.5t-111 47.5q-55 0 -100 -22.5 t-78 -61.5t-51.5 -89t-18.5 -108q0 -98 63.5 -153t184.5 -55l-12 -105q-74 0 -161 -21.5t-160.5 -68.5t-124 -121t-50.5 -180q0 -125 80 -195.5t234 -70.5q102 0 191 39t160 98t122 131t80 137h-60q-84 0 -147.5 -3t-113.5 -16.5t-92 -41t-85 -78.5q0 2 -18.5 15.5 t-22.5 13.5q39 80 96.5 128t125 73.5t141 33.5t147.5 8h70q43 0 90 3t90 17.5t76.5 41t50.5 73.5q18 -14 32.5 -44.5t14.5 -67.5q0 -29 -11.5 -56.5t-37 -49t-69.5 -36t-111 -14.5h-62q-47 -115 -114.5 -213t-158.5 -169.5t-207 -111.5t-259 -40q-215 0 -333 97t-118 271z " />
<glyph unicode="'" horiz-adv-x="395" d="M238 969l53 481h213l-162 -481h-104z" />
<glyph unicode="(" horiz-adv-x="653" d="M16 166q0 213 56.5 422t160 399.5t252 356t332.5 292.5l45 -59q-152 -133 -275.5 -296t-211.5 -350.5t-135 -394t-47 -430.5q0 -193 43 -363.5t133 -295.5l-58 -59q-133 135 -214 328.5t-81 449.5z" />
<glyph unicode=")" horiz-adv-x="649" d="M-254 -553q152 133 275.5 296t210.5 350.5t135.5 394t48.5 430.5q0 193 -43 363.5t-135 295.5l57 59q135 -135 215 -328.5t80 -449.5q0 -213 -56.5 -422t-160 -399.5t-251 -356t-331.5 -292.5z" />
<glyph unicode="*" horiz-adv-x="983" d="M242 1219l47 143l286 -115l-20 309h152l-21 -309l287 113l47 -141l-299 -80l197 -238l-121 -90l-166 262l-164 -262l-125 90l199 240z" />
<glyph unicode="+" horiz-adv-x="1138" d="M131 662v139h399v399h138v-399h403v-139h-403v-402h-138v402h-399z" />
<glyph unicode="," horiz-adv-x="471" d="M-168 -291q45 37 81 71t64.5 68.5t54 72.5t50.5 85l-98 103q0 57 41 97t98 40t97 -39t40 -98q0 -68 -41 -136.5t-99.5 -131t-124 -113t-116.5 -78.5z" />
<glyph unicode="-" d="M143 481v158h449v-158h-449z" />
<glyph unicode="." horiz-adv-x="473" d="M-10 125q0 57 41 96t98 39t97 -39t40 -96t-40 -98t-97 -41t-98 41t-41 98z" />
<glyph unicode="/" horiz-adv-x="886" d="M-72 0l955 1434h135l-955 -1434h-135z" />
<glyph unicode="0" horiz-adv-x="1251" d="M113 428q0 123 22.5 246t66.5 236.5t106.5 212t142 171t176 114.5t204.5 42q186 0 275.5 -118t89.5 -322q0 -193 -51 -377t-144.5 -327.5t-226.5 -231.5t-297 -88q-96 0 -164.5 33.5t-113.5 92t-65.5 139.5t-20.5 177zM319 414q0 -70 10.5 -129.5t33 -102.5t57.5 -67.5 t84 -24.5q70 0 132 43t116.5 116t97.5 168t74.5 198.5t48 208t16.5 198.5q0 70 -11 128t-33.5 101t-57.5 66.5t-84 23.5q-104 0 -192.5 -86t-153 -221t-101.5 -299.5t-37 -320.5z" />
<glyph unicode="1" horiz-adv-x="710" d="M139 0l320 1251l-256 -104l-13 74l463 227h52l-363 -1448h-203z" />
<glyph unicode="2" horiz-adv-x="1081" d="M-37 0l27 123q217 231 370.5 388t250 268.5t141.5 195.5t45 172t-45 152.5t-144 64.5q-92 0 -142 -61.5t-50 -153.5q0 -53 14 -105q-10 -2 -19.5 -3t-19.5 -1q-70 0 -117 37t-47 113q0 113 103.5 186.5t285.5 73.5q172 0 277.5 -78t105.5 -221q0 -72 -22.5 -133.5 t-66.5 -122.5t-110.5 -129t-154.5 -153t-198.5 -190.5t-241.5 -244.5h520l149 221h82l-139 -399h-854z" />
<glyph unicode="3" horiz-adv-x="1112" d="M-27 115l41 80q84 -51 170 -76t166 -25t149.5 22.5t122 63.5t83 101.5t30.5 136.5q0 137 -76.5 210.5t-263.5 78.5l25 102q78 2 147.5 27.5t122.5 72.5t84 116t31 159q0 78 -45 130t-131 52q-100 0 -156.5 -58.5t-56.5 -156.5q0 -23 4 -47.5t10 -50.5q-35 -10 -69.5 -5 t-62.5 23.5t-44 49t-16 71.5q0 63 32.5 112.5t86 81t121 48t138.5 16.5q76 0 145.5 -17.5t124 -52t87.5 -91t33 -132.5t-27 -139.5t-75 -113.5t-114.5 -87t-144.5 -59v-4q147 -23 223 -105t76 -200q0 -111 -43 -198t-114.5 -145.5t-166 -89t-196.5 -30.5q-117 0 -232 31.5 t-219 97.5z" />
<glyph unicode="4" horiz-adv-x="1126" d="M-39 362l19 72l995 1014h102l-235 -950h151l-35 -136h-151l-90 -362h-199l90 362h-647zM197 498h446l148 596z" />
<glyph unicode="5" horiz-adv-x="1042" d="M-66 72l56 84q111 -57 235 -58q90 0 175 31t151.5 87t106.5 139t40 188q0 45 -14 91t-47 81t-83 57.5t-124 22.5q-41 0 -84 -3.5t-100 -15.5l-37 29l209 629h416q80 0 138 21.5t95 47.5q43 31 74 70l55 -31q-35 -53 -70.5 -103t-85 -88t-120 -60.5t-175.5 -22.5h-266 l-121 -373l19 6q106 27 192 27q94 0 161 -31t109 -80t60.5 -109.5t18.5 -121.5q0 -117 -52.5 -225.5t-141.5 -191.5t-209 -133t-255 -50q-86 0 -146.5 13t-101.5 30q-47 18 -78 43z" />
<glyph unicode="6" horiz-adv-x="1103" d="M88 403q0 190 67.5 368.5t192.5 321t303 237.5t398 120l12 -96q-133 -25 -247 -81t-207 -135t-162.5 -178.5t-112.5 -211.5q14 10 46 31.5t78 43t103 38t125 16.5q82 0 142.5 -28t99.5 -74t57 -106.5t18 -127.5q0 -115 -38.5 -216.5t-109.5 -177t-172 -118.5t-226 -43 q-92 0 -161 31.5t-115 88t-68.5 132t-22.5 165.5zM266 408q0 -141 56.5 -231.5t160.5 -90.5q61 0 117.5 35t97.5 93t65.5 133t24.5 157q0 45 -11 86t-34.5 72.5t-61.5 50t-91 18.5q-47 0 -92 -11t-84 -26.5t-70 -32t-49 -28.5q-16 -59 -22.5 -112.5t-6.5 -112.5z" />
<glyph unicode="7" horiz-adv-x="944" d="M145 0q57 156 141.5 325t184.5 334.5t210 319.5t220 276h-520l-143 -211h-82l133 390h805l-29 -129q-246 -322 -427 -658t-280 -647h-213z" />
<glyph unicode="8" horiz-adv-x="1183" d="M94 264q0 82 34 157t88 138.5t123 114.5t138 90q-70 61 -120 132t-50 167q0 88 38 159.5t100.5 123t146.5 78t176 26.5q158 0 253 -69.5t95 -198.5q0 -78 -29.5 -140.5t-76.5 -112.5t-105.5 -91t-118.5 -74q41 -35 78 -71t64.5 -78t43 -90t15.5 -105q0 -104 -42 -185 t-114.5 -136.5t-170 -84t-207.5 -28.5q-70 0 -134.5 17t-114.5 52t-80 87t-30 122zM285 291q0 -104 63.5 -155.5t151.5 -51.5q63 0 117.5 19.5t95.5 55.5t64.5 86t23.5 111q0 57 -21.5 105.5t-55.5 89.5t-79 77l-90 72q-49 -33 -97 -76.5t-86 -96t-62.5 -111.5t-24.5 -125z M498 1137q0 -49 17 -91t47 -79t69 -72t80 -70q43 29 83 64t72.5 78t52 92t19.5 104q0 47 -18.5 82t-47 58.5t-66.5 35t-75 11.5q-45 0 -87 -14.5t-74.5 -42t-52 -67.5t-19.5 -89z" />
<glyph unicode="9" horiz-adv-x="1103" d="M102 80q133 25 247 81t207 135t162.5 178t112.5 212q-14 -10 -45.5 -31.5t-77.5 -43t-103.5 -38t-125.5 -16.5q-82 0 -142.5 26.5t-99 72.5t-57 107.5t-18.5 129.5q0 115 39 216t109.5 176t172 119t226.5 44q92 0 160.5 -32t114.5 -88t68.5 -133t22.5 -165 q0 -190 -67.5 -368.5t-192.5 -320.5t-303 -237.5t-397 -119.5zM375 930q0 -45 11 -86t34.5 -73t61.5 -50.5t91 -18.5q47 0 92.5 10.5t84 26t69.5 32.5t49 30q16 59 22.5 112.5t6.5 112.5q0 141 -56.5 231.5t-160.5 90.5q-61 0 -117.5 -35t-97.5 -93.5t-65.5 -133 t-24.5 -156.5z" />
<glyph unicode=":" horiz-adv-x="559" d="M20 125q0 57 41 97t97 40q59 0 98 -40t39 -97t-39 -98t-98 -41q-55 0 -96.5 41t-41.5 98zM199 805q0 57 42 97t97 40q57 0 97 -40t40 -97t-40 -98t-97 -41q-55 0 -97 41t-42 98z" />
<glyph unicode=";" horiz-adv-x="563" d="M-133 -272q45 37 82 70.5t65.5 68.5t53 72.5t49.5 85.5l-99 102q0 57 41 96t99 39q57 0 97 -38t40 -97q0 -68 -40 -136.5t-98.5 -131t-124 -112.5t-116.5 -79zM201 805q0 57 41 97t98 40t97 -40t40 -97t-40 -98t-97 -41t-98 41t-41 98z" />
<glyph unicode="&#x3c;" horiz-adv-x="1187" d="M123 676v112l878 474v-158l-688 -373l688 -369v-157z" />
<glyph unicode="=" horiz-adv-x="1222" d="M141 494v137h940v-137h-940zM141 831v140h940v-140h-940z" />
<glyph unicode="&#x3e;" horiz-adv-x="1183" d="M250 205v157l688 369l-688 373v158l878 -474v-112z" />
<glyph unicode="?" horiz-adv-x="956" d="M231 125q0 57 41 96t99 39q57 0 97 -39t40 -96t-40 -98t-97 -41t-98.5 41t-41.5 98zM242 1208q0 100 102 171t299 71q74 0 138.5 -17.5t111.5 -50t73.5 -82t26.5 -110.5q0 -98 -44 -163.5t-110.5 -113t-143.5 -82t-143.5 -70.5t-110.5 -80t-44 -108q0 -47 27 -73.5 t63 -26.5q23 0 45.5 7t55.5 32l49 -63q-39 -37 -84 -51.5t-88 -14.5q-35 0 -70 12.5t-63.5 36t-46 58t-17.5 81.5q0 84 38 143.5t96.5 104.5t125 82t125 79t96 95t37.5 129q0 78 -47 119t-121 41q-84 0 -131 -57.5t-47 -149.5q0 -23 4.5 -48.5t10.5 -53.5q-92 0 -152.5 36.5 t-60.5 116.5z" />
<glyph unicode="@" horiz-adv-x="1792" d="M115 475q0 199 66.5 377t190.5 310t300 210t393 78q145 0 270 -44t216 -123t142.5 -188.5t51.5 -242.5q0 -145 -56.5 -267t-154.5 -210t-231.5 -137.5t-286.5 -49.5q-55 0 -55 48q0 31 13 62.5t25 59.5q-63 -70 -144 -120t-181 -50q-72 0 -122 48.5t-50 162.5 q0 141 51 265t135 217.5t192.5 146.5t225.5 53q84 0 153.5 -18.5t145.5 -61.5l-246 -704q90 12 177 57t155 118t109.5 169t41.5 211q0 113 -44 207t-122.5 161.5t-185 104.5t-229.5 37q-176 0 -318.5 -72.5t-243 -193.5t-153.5 -277.5t-53 -324.5q0 -147 48 -262t132 -195 t198.5 -122t248.5 -42q195 0 387 78l34 -70q-109 -59 -231.5 -90t-251.5 -31q-152 0 -286 45t-236.5 134.5t-161.5 223.5t-59 312zM698 446q0 -59 20.5 -93t61.5 -34q33 0 70 18.5t74 49.5t72.5 70t66.5 82l156 446q-18 6 -41 9t-45 3q-84 0 -163 -45t-139.5 -121.5 t-96.5 -176t-36 -208.5z" />
<glyph unicode="A" horiz-adv-x="1316" d="M-160 0l21 84l188 45l778 1305h113l96 -1307l162 -43l-20 -84h-512l20 84l156 37l-25 291h-469l-174 -285l162 -43l-21 -84h-475zM418 522h389l-37 596z" />
<glyph unicode="B" horiz-adv-x="1292" d="M-41 0l21 84l188 45l293 1176l-166 45l20 84h478q84 0 156.5 -17.5t125.5 -53.5t83 -93.5t30 -136.5q0 -68 -22.5 -129.5t-62.5 -111.5t-97.5 -86t-126.5 -54l-2 -7q111 -31 175 -111.5t64 -191.5q0 -113 -48 -195.5t-127 -138t-180.5 -82t-209.5 -26.5h-592zM360 115 h179q74 2 141.5 24.5t118.5 65.5t81.5 106.5t30.5 143.5q0 100 -63.5 164.5t-185.5 64.5h-158zM532 803h113q68 2 129.5 25.5t106.5 66.5t71.5 102.5t26.5 130.5q0 92 -52.5 141.5t-164.5 49.5h-100z" />
<glyph unicode="C" horiz-adv-x="1259" d="M113 489q0 176 58 348.5t165.5 308.5t258 220t335.5 84q96 0 170 -12.5t125 -28.5q59 -18 102 -41l-94 -379h-80l-12 322q-39 10 -77 15t-75 5q-147 0 -271 -67.5t-213 -182t-138.5 -265t-49.5 -314.5q0 -70 13.5 -139.5t48.5 -125t93 -90t151 -34.5q29 0 74.5 3 t105.5 15l233 332h80l-145 -377q-68 -35 -168.5 -67.5t-210.5 -32.5q-135 0 -227.5 42t-148.5 111.5t-79.5 160.5t-23.5 189z" />
<glyph unicode="D" horiz-adv-x="1427" d="M-41 0l21 84l188 45l293 1176l-166 45l20 84h443q301 0 455.5 -127t154.5 -379q0 -233 -79 -407.5t-212 -290t-308 -173t-368 -57.5h-442zM365 127h67q164 0 299 64.5t231.5 175t149.5 257t53 312.5q0 174 -102 272.5t-336 98.5h-68z" />
<glyph unicode="E" horiz-adv-x="1214" d="M-41 0l21 84l188 45l293 1176l-166 45l20 84h953l-105 -420h-78l-12 293h-414l-133 -527l416 41l-41 -172l-397 37l-139 -559h411l223 315h78l-166 -442h-952z" />
<glyph unicode="F" horiz-adv-x="1128" d="M-41 0l21 84l188 45l293 1176l-166 45l20 84h953l-105 -420h-78l-12 293h-414l-133 -527l416 41l-41 -172l-397 37l-139 -557l206 -45l-20 -84h-592z" />
<glyph unicode="G" horiz-adv-x="1368" d="M111 483q0 197 65.5 373t182 308t278.5 209t356 77q176 0 371 -80l-94 -379h-78l-14 328q-90 18 -168 18q-158 0 -285 -67.5t-218 -183t-140.5 -268t-49.5 -322.5q0 -104 30 -178t82 -121t123 -70t153 -23q35 0 70.5 5.5t74.5 13.5l102 412l-202 71l16 64h561l-16 -64 l-162 -71l-113 -449q-92 -43 -197.5 -71.5t-209.5 -28.5q-102 0 -195.5 27.5t-165 87t-114.5 153.5t-43 229z" />
<glyph unicode="H" horiz-adv-x="1576" d="M-41 0l21 84l188 45l293 1176l-166 45l20 84h553l-20 -84l-191 -45l-129 -517h613l129 517l-164 45l20 84h551l-20 -84l-189 -45l-292 -1176l165 -45l-20 -84h-551l21 84l186 45l133 533h-612l-133 -533l167 -45l-20 -84h-553z" />
<glyph unicode="I" horiz-adv-x="768" d="M-41 0l21 84l188 45l293 1176l-166 45l20 84h553l-20 -84l-191 -45l-292 -1176l167 -45l-20 -84h-553z" />
<glyph unicode="J" horiz-adv-x="727" d="M-170 -238q51 33 105.5 82.5t103.5 117t91 152.5t69 193l247 998l-163 45l20 84h553l-20 -84l-191 -45l-248 -998q-29 -119 -91 -218t-139 -177t-160 -133t-152 -84z" />
<glyph unicode="K" horiz-adv-x="1361" d="M-41 0l21 84l188 45l293 1176l-166 45l20 84h553l-20 -84l-191 -45l-292 -1176l167 -45l-20 -84h-553zM561 745l576 560l-125 45l20 84h488l-21 -84l-166 -41l-573 -545l104 -240q51 -121 89 -198.5t77 -126.5t87 -78t120 -51l-23 -84q-106 4 -181 30.5t-133 82 t-107.5 141.5t-104.5 213z" />
<glyph unicode="L" horiz-adv-x="1153" d="M-41 0l21 84l188 45l293 1176l-166 45l20 84h553l-20 -84l-191 -45l-292 -1178h411l223 315h78l-166 -442h-952z" />
<glyph unicode="M" horiz-adv-x="1921" d="M-80 0l21 84l194 47l359 1176l-160 43l20 84h369l164 -1090l692 1090h401l-20 -84l-182 -43l-232 -1178l176 -45l-20 -84h-555l20 84l181 43l202 1022l-739 -1159h-63l-175 1161l-305 -1024l162 -43l-20 -84h-490z" />
<glyph unicode="N" horiz-adv-x="1517" d="M-41 0l21 84l188 45l293 1176l-166 45l20 84h279l481 -1024l223 895l-163 45l20 84h485l-20 -84l-190 -45l-324 -1305h-53l-514 1090l-240 -961l166 -45l-21 -84h-485z" />
<glyph unicode="O" horiz-adv-x="1472" d="M111 477q0 184 59 358.5t166.5 311.5t259.5 220t336 83q125 0 217 -39t151.5 -105.5t89 -156.5t29.5 -193q0 -182 -58 -356t-164.5 -311t-258.5 -220t-338 -83q-127 0 -219 38.5t-151.5 105.5t-89 156t-29.5 191zM319 459q0 -164 73 -264.5t224 -100.5q96 0 178.5 40 t148 107.5t115.5 156.5t84 187.5t51 200t17 193.5q0 162 -72.5 260t-226.5 98q-94 0 -175 -40t-147.5 -107.5t-116.5 -156.5t-84 -187t-51.5 -197.5t-17.5 -189.5z" />
<glyph unicode="P" horiz-adv-x="1196" d="M-41 0l21 84l188 45l293 1176l-166 45l20 84h478q96 0 176 -21.5t138 -67t91 -112t33 -156.5q0 -131 -47 -231.5t-130 -168t-196 -102t-242 -34.5q-47 0 -81.5 4t-63.5 8l-106 -424l225 -45l-21 -84h-610zM500 672q23 -4 52.5 -6t76.5 -2q88 0 161.5 28.5t126 80.5 t81 127t28.5 169q0 115 -64.5 180.5t-197.5 65.5h-102z" />
<glyph unicode="Q" horiz-adv-x="1470" d="M111 477q0 184 59 358.5t166.5 311.5t259.5 220t336 83q125 0 217 -39t151.5 -105.5t89 -156.5t29.5 -193q0 -162 -46 -318.5t-132 -286.5t-208 -222t-273 -127q102 -23 174 -63.5t132 -80.5t118.5 -70t134.5 -30q53 0 113.5 29t113.5 104l53 -30q-78 -154 -154.5 -222.5 t-174.5 -68.5q-63 0 -113.5 22.5t-97.5 58.5t-94 81t-102.5 91t-124 89t-158.5 74q-121 4 -209 44t-146.5 105.5t-86 153.5t-27.5 188zM319 459q0 -164 73 -264.5t224 -100.5q96 0 178.5 40t148 107.5t115.5 156.5t84 187.5t51 200t17 193.5q0 162 -72.5 260t-226.5 98 q-94 0 -175 -40t-147.5 -107.5t-116.5 -156.5t-84 -187t-51.5 -197.5t-17.5 -189.5z" />
<glyph unicode="R" horiz-adv-x="1316" d="M-41 0l21 84l188 45l293 1176l-166 45l20 84h496q94 0 173 -19.5t136.5 -59.5t89 -100.5t31.5 -142.5q0 -100 -32.5 -178t-88 -133.5t-129 -89t-155.5 -41.5l57 -193q20 -74 44 -138.5t58.5 -116.5t84.5 -92t122 -60l-22 -84q-106 4 -181 36.5t-128.5 88t-89.5 130 t-62 165.5l-74 233l-153 -2l-127 -508l167 -45l-20 -84h-553zM520 750h121q80 0 151.5 23.5t126 68.5t86 111.5t31.5 154.5q0 98 -64.5 152.5t-189.5 54.5h-120z" />
<glyph unicode="S" horiz-adv-x="1128" d="M-2 82l115 377h80v-330q41 -16 92 -25.5t106 -9.5q66 0 130.5 13.5t116.5 42t85 76.5t33 116q0 76 -38 131t-94.5 104.5t-123 95.5t-122.5 99t-94 121t-38 160q0 98 40 172.5t108.5 124t161.5 75t200 25.5q121 0 212 -18.5t156 -47.5l-112 -376h-78v313q-29 8 -75 12 t-83 4q-61 0 -120.5 -11t-107.5 -37.5t-77 -72t-29 -112.5q0 -63 39 -116.5t98.5 -103.5t128 -101.5t128 -110t98.5 -129t39 -160.5q0 -102 -40 -177t-111.5 -124t-172 -72.5t-223.5 -23.5q-102 0 -217 23.5t-211 72.5z" />
<glyph unicode="T" horiz-adv-x="1214" d="M164 999l108 435h1086l-109 -435h-78l-10 308h-276l-295 -1178l166 -45l-21 -84h-553l21 84l188 45l295 1178h-278l-164 -308h-80z" />
<glyph unicode="U" horiz-adv-x="1509" d="M199 346q0 45 6 95.5t22 109.5l189 754l-166 45l20 84h553l-20 -84l-191 -45l-188 -754q-12 -51 -20.5 -94t-8.5 -80q0 -129 83 -187.5t214 -58.5q156 0 268.5 110.5t161.5 309.5l189 754l-164 45l20 84h486l-21 -84l-190 -45l-189 -754q-72 -287 -233.5 -426 t-403.5 -139q-86 0 -162.5 20.5t-133 64.5t-89 111.5t-32.5 163.5z" />
<glyph unicode="V" horiz-adv-x="1310" d="M174 1350l21 84h516l-21 -84l-158 -35l78 -1016l559 1006l-143 45l21 84h475l-21 -84l-188 -45l-733 -1319h-144l-102 1319z" />
<glyph unicode="W" horiz-adv-x="1929" d="M172 1350l21 84h512l-21 -84l-158 -37l45 -973l555 1094h125l58 -1092l471 963l-162 45l20 84h490l-21 -84l-188 -45l-645 -1319h-141l-60 1071l-541 -1071h-141l-61 1321z" />
<glyph unicode="X" horiz-adv-x="1341" d="M-152 0l21 84l188 45l549 612l-196 562l-164 47l20 84h494l-21 -84l-129 -33l158 -449l381 441l-150 41l21 84h510l-21 -84l-190 -45l-504 -570l213 -608l164 -43l-21 -84h-495l20 84l129 31l-172 491l-424 -481l150 -41l-21 -84h-510z" />
<glyph unicode="Y" horiz-adv-x="1259" d="M158 1350l20 84h486l-21 -84l-131 -27l190 -535l418 521l-151 41l20 84h473l-20 -84l-156 -45l-530 -654l-129 -522l180 -45l-21 -84h-550l20 84l172 45l127 512l-246 668z" />
<glyph unicode="Z" horiz-adv-x="1245" d="M-41 0l31 127l1020 1180h-547l-158 -293h-78l105 420h962l-30 -127l-1018 -1180h581l222 315h79l-165 -442h-1004z" />
<glyph unicode="[" horiz-adv-x="653" d="M-31 -262l453 1818h430l-25 -102h-239l-404 -1614h240l-25 -102h-430z" />
<glyph unicode="\" horiz-adv-x="743" d="M326 -248l10 1804h102v-1804h-112z" />
<glyph unicode="]" horiz-adv-x="651" d="M-174 -262l24 102h238l404 1614h-238l25 102h428l-453 -1818h-428z" />
<glyph unicode="^" horiz-adv-x="1144" d="M219 547l631 917h84l178 -917h-129l-131 729l-490 -729h-143z" />
<glyph unicode="_" horiz-adv-x="1585" d="M115 -160h940v-131h-940v131z" />
<glyph unicode="`" horiz-adv-x="358" d="M-80 1464q41 47 90 72t103 35l206 -361l-71 -55z" />
<glyph unicode="a" horiz-adv-x="1161" d="M49 281q0 158 51.5 296t138.5 240.5t204.5 161.5t252.5 59q86 0 169 -20.5t165 -73.5l-207 -803h205v-65q-43 -14 -86 -27q-37 -10 -79 -22.5t-75 -22.5l-46 -12t-50 -6q-31 0 -51 13t-20 48q0 8 2 28.5t12 55.5l18 74q-35 -43 -74.5 -83t-87 -69.5t-101.5 -48 t-114 -18.5q-45 0 -85.5 15t-72.5 51t-50.5 92.5t-18.5 136.5zM250 326q0 -86 29.5 -142.5t97.5 -56.5q37 0 80 22.5t87 59.5t85 84t73 98l142 543q-23 8 -50.5 11t-52.5 3q-113 0 -202.5 -57t-154.5 -146.5t-99.5 -201t-34.5 -217.5z" />
<glyph unicode="b" horiz-adv-x="1105" d="M33 80l375 1417h-205v66q43 14 86 26q37 10 78 22.5t75 22.5q23 6 46.5 12.5t50.5 6.5q31 0 51 -13.5t20 -48.5q0 -8 -2 -28.5t-12 -55.5l-180 -682q33 43 73.5 81t87 68t98.5 47t111 17q45 0 86 -15t73 -51t50.5 -92.5t18.5 -136.5q0 -158 -51.5 -296t-138.5 -240.5 t-204.5 -161.5t-252.5 -59q-86 0 -169 20.5t-165 73.5zM219 90q23 -8 50.5 -11t52.5 -3q113 0 202.5 57t154 146.5t99.5 200t35 218.5q0 86 -29.5 142.5t-97.5 56.5q-37 0 -79 -21.5t-85 -58.5t-84 -83t-73 -95z" />
<glyph unicode="c" horiz-adv-x="946" d="M55 348q0 121 39 244t115 222t186.5 161.5t251.5 62.5q131 0 208 -49t77 -117q0 -61 -49 -102t-133 -45q-14 55 -23.5 99t-20 73t-26.5 44t-43 15q-68 0 -134.5 -44t-118.5 -121.5t-85 -186t-33 -239.5q0 -59 12.5 -109.5t41 -88.5t74.5 -59.5t114 -21.5q53 0 113.5 14.5 t126.5 38.5l20 -63q-66 -33 -153 -61.5t-220 -28.5q-160 0 -250 92t-90 270z" />
<glyph unicode="d" horiz-adv-x="1171" d="M49 281q0 158 51.5 296t138.5 240.5t204.5 161.5t252.5 59q86 0 162 -20l117 477h-205v66q43 14 86 26q37 10 78 22.5t76 22.5q23 6 47 13.5t51 7.5q31 0 51.5 -14.5t20.5 -49.5q0 -20 -15 -84l-334 -1364h205v-65q-43 -14 -86 -27q-37 -10 -79 -22.5t-74 -22.5 q-23 -6 -47.5 -12t-51.5 -6q-31 0 -51 13t-20 48q0 8 2 28.5t12 55.5l21 84q-35 -45 -76 -86t-89 -72.5t-103.5 -51t-117.5 -19.5q-45 0 -85.5 15t-72.5 51t-50.5 92.5t-18.5 136.5zM250 326q0 -86 29.5 -142.5t97.5 -56.5q37 0 81 22.5t88 60.5t85 87t74 100l133 539 q-47 12 -97 12q-113 0 -202.5 -57t-154.5 -146.5t-99.5 -201t-34.5 -217.5z" />
<glyph unicode="e" horiz-adv-x="968" d="M49 332q0 121 42 245.5t123 227t198.5 168t267.5 65.5q111 0 183.5 -50t72.5 -154q0 -98 -64.5 -168t-164 -119t-219 -82t-232.5 -57q-2 -14 -2 -28v-28q0 -74 17.5 -125t48 -82.5t73.5 -45t92 -13.5q57 0 122 15.5t130 39.5l21 -63q-35 -16 -72 -32.5t-82 -30 t-100 -21.5t-123 -8q-160 0 -246 84t-86 262zM266 487q80 29 164 66t151.5 82t110.5 99t43 120q0 53 -25.5 81t-70.5 28q-63 0 -123.5 -40t-110 -105.5t-86.5 -152t-53 -178.5z" />
<glyph unicode="f" horiz-adv-x="712" d="M-629 -453q0 59 42 101.5t114 81.5q23 -59 39 -108.5t37.5 -85.5t50.5 -56.5t76 -20.5q92 0 176 100.5t133 305.5l256 1055h-152l17 67l153 12l43 175q33 137 93.5 229t137.5 147.5t163 79t172 23.5q74 0 134 -9.5t104 -30t68.5 -53t24.5 -77.5q0 -57 -41 -99.5 t-106 -70.5l-50 107q-22 46 -44.5 78t-50 48.5t-68.5 16.5q-37 0 -84 -13.5t-97 -58.5t-97.5 -133t-84.5 -236l-26 -108l299 24l-31 -118h-291l-258 -1059q-35 -143 -90 -237.5t-125.5 -151t-152.5 -80t-170 -23.5q-143 0 -228.5 50t-85.5 128z" />
<glyph unicode="g" horiz-adv-x="1112" d="M-109 -453q0 59 42 101.5t114 81.5q23 -59 39 -108.5t37.5 -85.5t51.5 -56.5t79 -20.5q33 0 75 13.5t86 60.5t88 137t83 242l76 305q-35 -45 -76 -87t-89 -73.5t-103.5 -51t-117.5 -19.5q-45 0 -85.5 15t-72.5 51t-50.5 92.5t-18.5 136.5q0 158 51.5 296t138.5 240.5 t204.5 161.5t252.5 59q86 0 169 -20.5t165 -73.5l-270 -1083q-37 -152 -95.5 -247t-130 -149.5t-153.5 -75t-170 -20.5q-143 0 -231.5 50t-88.5 128zM250 326q0 -86 29.5 -142.5t97.5 -56.5q39 0 83 23.5t89 62.5t86 88t74 100l135 533q-23 8 -50.5 11t-52.5 3 q-113 0 -202.5 -57t-154.5 -146.5t-99.5 -201t-34.5 -217.5z" />
<glyph unicode="h" horiz-adv-x="1173" d="M25 -14l376 1511h-204v66q43 14 86 26q37 10 77.5 22.5t75.5 22.5q23 6 47.5 12.5t51.5 6.5q31 0 51 -13.5t20 -48.5q0 -8 -2 -28.5t-12 -55.5l-189 -743q37 49 82 98t97.5 88t111 63.5t123.5 24.5q55 0 92 -15t58.5 -43t31 -64.5t9.5 -77.5q0 -68 -17.5 -140.5 t-34.5 -132.5l-122 -424h204v-65q-43 -14 -86 -27q-37 -10 -79 -22.5t-74 -22.5q-23 -6 -47.5 -12t-51.5 -6q-31 0 -51 13t-20 48q0 8 2 28.5t12 55.5q51 180 85 295t53.5 185.5t27.5 110.5t8 69q0 41 -16.5 69.5t-59.5 28.5q-39 0 -89 -24.5t-103 -67.5t-103.5 -98.5 t-87.5 -116.5l-145 -582z" />
<glyph unicode="i" horiz-adv-x="641" d="M92 45q0 8 2 29.5t12 54.5l193 756h-207v63q45 14 88 27q37 10 78 23.5t76 23.5q23 4 46 10t50 6q31 0 52.5 -12t21.5 -47q0 -8 -3 -29.5t-14 -54.5l-188 -756h205v-63q-45 -14 -88 -27q-37 -10 -79 -23.5t-75 -23.5q-23 -4 -46 -10t-50 -6q-31 0 -52.5 12t-21.5 47z M340 1319q0 55 39 93t94 38t93 -38t38 -93q0 -57 -38 -95t-93 -38t-94 38t-39 95z" />
<glyph unicode="j" horiz-adv-x="606" d="M-618 -453q0 59 41.5 101.5t113.5 81.5q23 -59 39 -108.5t37.5 -85.5t51.5 -56.5t77 -20.5q33 0 77 16.5t90 65.5t90 137.5t79 233.5l235 971h-204v65q43 14 86 27q37 10 77.5 22.5t75.5 22.5q23 6 47.5 12t50.5 6q31 0 51.5 -13t20.5 -48q0 -8 -2 -28.5t-12 -55.5 l-256 -1032q-35 -143 -92.5 -237.5t-128 -151t-153.5 -80t-171 -23.5q-72 0 -131 13.5t-101 37t-65.5 56t-23.5 71.5zM371 1319q0 55 39 93t94 38t93 -38t38 -93q0 -57 -38 -95t-93 -38t-94 38t-39 95z" />
<glyph unicode="k" horiz-adv-x="1095" d="M25 -14l374 1511h-204v66q43 14 86 26q37 10 77.5 22.5t75.5 22.5q23 6 47.5 12.5t50.5 6.5q31 0 51.5 -13.5t20.5 -48.5q0 -20 -14 -84l-377 -1507zM383 532q205 94 302 169t97 130q0 39 -22.5 76t-52.5 78q20 14 43 27q20 10 46.5 18t59.5 8q70 0 101.5 -33.5 t31.5 -89.5q0 -55 -31.5 -107t-85 -100.5t-126 -92.5t-152.5 -85l106 -196q37 -68 66 -114t58.5 -76.5t64.5 -51t86 -37.5l-17 -69q-74 0 -130 7t-102 31.5t-86 69.5t-81 119z" />
<glyph unicode="l" horiz-adv-x="606" d="M59 45q0 8 3.5 29.5t13.5 54.5l340 1368h-205v66q43 14 86 26q37 10 78 22.5t76 22.5q23 6 46 12.5t52 6.5q31 0 51.5 -13.5t20.5 -48.5q0 -8 -3.5 -28.5t-13.5 -55.5l-340 -1368h205v-63q-43 -14 -86 -27q-37 -10 -79 -23.5t-75 -23.5q-23 -4 -46 -10t-52 -6 q-31 0 -51.5 12t-20.5 47z" />
<glyph unicode="m" horiz-adv-x="1779" d="M74 -14l225 897h-205v65q43 14 86 27q37 10 78 22.5t76 22.5q23 6 47.5 12t50.5 6q31 0 51.5 -13t20.5 -48q0 -8 -2 -28.5t-13 -55.5l-26 -102q35 47 76 91t89 78.5t102 56t116 21.5q92 0 142 -48t50 -156q0 -10 -1 -22.5t-3 -27.5q35 47 77 93.5t90 82t103.5 57 t116.5 21.5q92 0 142.5 -48t50.5 -156q0 -47 -16.5 -125t-42 -172.5t-57.5 -196.5t-60 -199h204v-65q-43 -14 -86 -27q-37 -10 -78.5 -22.5t-74.5 -22.5q-23 -6 -47.5 -12t-50.5 -6q-31 0 -51.5 13t-20.5 48q0 8 2 28.5t12 55.5q31 104 61.5 209.5t55.5 196t40 159t15 97.5 q0 49 -19.5 71.5t-53.5 22.5q-37 0 -83 -22.5t-93.5 -61.5t-92.5 -91.5t-82 -109.5l-161 -602l-195 -14l156 573q6 20 14 51t15 65t13.5 64.5t6.5 53.5q0 49 -19.5 71.5t-54.5 22.5q-37 0 -84 -23.5t-96 -64.5t-95 -94.5t-83 -112.5l-150 -592z" />
<glyph unicode="n" horiz-adv-x="1224" d="M76 -14l223 897h-205v65q43 14 86 27q37 10 78 22.5t76 22.5q23 6 47.5 12t50.5 6q31 0 51.5 -13t20.5 -48q0 -8 -2 -28.5t-13 -55.5l-32 -127q37 49 82 98t96 87t109.5 62.5t123.5 24.5q55 0 92 -15t58.5 -43t31 -64.5t9.5 -77.5q0 -68 -17.5 -140.5t-33.5 -132.5 l-123 -424h205v-65q-43 -14 -86 -27q-37 -10 -79 -22.5t-75 -22.5q-23 -6 -47.5 -12t-50.5 -6q-31 0 -51.5 13t-20.5 48q0 8 2 28.5t12 55.5q51 180 85 295t53.5 185.5t27.5 110.5t8 69q0 41 -16 68.5t-59 27.5q-37 0 -87.5 -24.5t-103.5 -66.5t-103 -96.5t-87 -115.5 l-148 -584z" />
<glyph unicode="o" horiz-adv-x="1101" d="M53 360q0 123 43 244t122 218.5t191.5 156.5t254.5 59q172 0 256 -103.5t84 -272.5q0 -123 -43 -244t-123 -217.5t-193 -155.5t-254 -59q-172 0 -255 102t-83 272zM260 324q0 -117 36 -186.5t120 -69.5q66 0 120 30.5t96 82.5t72.5 118t51 136.5t30 139t9.5 123.5 q0 115 -36 186.5t-120 71.5q-66 0 -119 -31.5t-95 -82.5t-74 -118t-51 -137.5t-29.5 -139t-10.5 -123.5z" />
<glyph unicode="p" horiz-adv-x="1169" d="M-80 -614l381 1497h-205v65q43 14 86 27q37 10 78 22.5t76 22.5q23 6 47.5 12t50.5 6q31 0 51.5 -13t20.5 -48q0 -20 -14 -84l-19 -74q33 43 74 83t88 69.5t101.5 48t113.5 18.5q45 0 86 -15t72.5 -51t50 -92.5t18.5 -136.5q0 -158 -51 -296t-138 -240.5t-205 -161.5 t-253 -59q-84 0 -166 18l-149 -588zM287 88q23 -8 49 -10t49 -2q113 0 203 57t154.5 146.5t99.5 200t35 218.5q0 86 -30 142.5t-97 56.5q-37 0 -81 -22.5t-87 -59.5t-83 -84t-73 -96z" />
<glyph unicode="q" horiz-adv-x="1107" d="M49 281q0 158 51.5 296t138.5 240.5t204.5 161.5t252.5 59q86 0 169 -20.5t165 -73.5l-399 -1546l-193 -27l217 836q-35 -43 -75.5 -83t-88 -70.5t-101.5 -49t-114 -18.5q-45 0 -85.5 15t-72.5 51t-50.5 92.5t-18.5 136.5zM250 326q0 -86 29.5 -142.5t97.5 -56.5 q37 0 81 22.5t87 59.5t84 85t73 99l142 541q-23 8 -50.5 11t-52.5 3q-113 0 -202.5 -57t-154.5 -146.5t-99.5 -201t-34.5 -217.5z" />
<glyph unicode="r" horiz-adv-x="911" d="M74 -14l225 899h-205v63q43 14 86 27q37 10 78 23.5t76 23.5q23 4 47.5 10t50.5 6q31 0 51.5 -12t20.5 -47q0 -8 -2 -29.5t-13 -54.5l-32 -125q37 49 80 97t90 86t96 61.5t100 23.5q66 0 99.5 -37.5t33.5 -91.5q0 -59 -41 -123q-74 35 -114.5 49.5t-75.5 14.5 q-45 0 -87 -24.5t-82 -64.5t-77 -89t-71 -99l-144 -573z" />
<glyph unicode="s" horiz-adv-x="909" d="M-23 162q0 31 13.5 55.5t35 44t50.5 35.5l57 33q16 -47 38 -93.5t51.5 -83t71.5 -59t99 -22.5q66 0 112 39t46 106q0 57 -27.5 98t-70.5 76t-91.5 69t-91.5 76t-70.5 96t-27.5 132q0 135 100.5 204.5t268.5 69.5q143 0 233 -43t90 -116q0 -33 -17.5 -55.5t-42 -39 t-53 -28t-51.5 -17.5q-29 90 -79 149.5t-132 59.5q-61 0 -103 -32.5t-42 -94.5q0 -72 54.5 -124t127.5 -105q90 -66 145.5 -138.5t55.5 -174.5q0 -133 -100.5 -213t-292.5 -80q-178 0 -267.5 51t-89.5 125z" />
<glyph unicode="t" horiz-adv-x="763" d="M111 109q0 31 10 75l186 742h-170l17 61l174 14l45 179l190 30l-49 -194l268 22l-28 -112h-262l-173 -703q-4 -20 -4 -24q0 -25 13.5 -35t33.5 -10q23 0 43.5 3t49 11t71.5 21.5t111 35.5l20 -65q-39 -18 -95 -48t-117.5 -57.5t-121 -48t-104.5 -20.5q-57 0 -82.5 35 t-25.5 88z" />
<glyph unicode="u" horiz-adv-x="1222" d="M90 883v65q43 14 86 27q37 10 78 22.5t76 22.5q23 6 47 12t51 6q31 0 51.5 -13t20.5 -48q0 -8 -2 -28.5t-13 -55.5q-51 -180 -84.5 -295t-53 -185.5t-28 -110.5t-8.5 -69q0 -41 16.5 -68.5t59.5 -27.5q37 0 87 24.5t103.5 66.5t103.5 96.5t87 115.5l147 584l189 14 l-223 -897h204v-65q-43 -14 -86 -27q-37 -10 -78.5 -22.5t-74.5 -22.5q-23 -6 -47.5 -12t-50.5 -6q-31 0 -51.5 13t-20.5 48q0 8 2 28.5t12 55.5l33 127q-37 -49 -82 -98t-96 -87t-110.5 -62.5t-123.5 -24.5q-55 0 -92 15t-58.5 43t-30.5 64.5t-9 77.5q0 68 17.5 140.5 t33.5 132.5l123 424h-205z" />
<glyph unicode="v" horiz-adv-x="1107" d="M39 883v65l182 66q31 10 56.5 17t52.5 7q29 0 49 -12t29 -49l153 -825q55 72 113.5 149.5t105.5 156.5t77 156.5t30 151.5q0 59 -40 98t-108 86q35 41 82 64.5t101 23.5q25 0 50 -7t45.5 -23.5t34 -44t13.5 -68.5q0 -59 -20.5 -132t-77 -175.5t-155.5 -245.5t-257 -342 l-154 -14l-157 897h-205z" />
<glyph unicode="w" horiz-adv-x="1667" d="M39 883v65l190 66q31 10 56.5 17t52.5 7q29 0 50.5 -12t27.5 -49l143 -827q109 137 189.5 288.5t95.5 292.5l-51 293l182 14l164 -882q55 72 106 148.5t90 154.5t62.5 155.5t23.5 151.5q0 59 -40 98t-107 86q35 41 82 64.5t100 23.5q25 0 50.5 -7t46 -23.5t33.5 -44 t13 -68.5q0 -59 -14 -132t-62 -175.5t-141.5 -245.5t-251.5 -342q-2 0 -26.5 -2t-52.5 -6q-35 -4 -78 -6l-90 522q-29 -47 -59.5 -102.5t-68.5 -118t-86 -134t-112 -153.5q-2 0 -26.5 -2t-53.5 -6q-35 -4 -76 -6l-157 897h-205z" />
<glyph unicode="x" horiz-adv-x="1132" d="M-61 111q0 29 7 57.5t19 60.5q109 -35 172 -34q45 0 79 16t67.5 53t74.5 95.5t101 140.5l-115 383h-207v65l174 66q25 10 50.5 17t52.5 7q29 0 53.5 -12t34.5 -49l96 -326q74 98 131 171t106.5 121t91.5 71.5t85 23.5q57 0 92 -35.5t35 -91.5q0 -29 -8.5 -57.5 t-20.5 -60.5q-53 16 -95 25t-77 9q-45 0 -79 -17t-66.5 -53t-70.5 -89.5t-89 -124.5l123 -402h207v-65l-172 -68q-29 -10 -53.5 -16t-51.5 -6q-29 0 -53.5 12t-34.5 49l-104 346q-78 -102 -137.5 -179t-110.5 -128t-94 -75.5t-86 -24.5q-59 0 -93 35t-34 90z" />
<glyph unicode="y" horiz-adv-x="1112" d="M0 -502q0 49 28.5 95.5t81 99.5t127 123.5t169.5 169.5l-160 897h-205v65l182 66q31 10 56.5 17t52.5 7q29 0 50 -12t28 -49l149 -819l16 18q94 115 155 203t96.5 158.5t49 126t13.5 102.5q0 55 -37 92t-111 92q35 41 82 64.5t101 23.5q25 0 50 -7t45.5 -23.5t34 -44 t13.5 -68.5q0 -53 -18.5 -125t-65.5 -166t-129 -216t-211 -277q-121 -145 -202 -234.5t-128 -145t-66.5 -89t-19.5 -66.5q0 -31 9.5 -53.5t42.5 -57.5q-29 -33 -67 -56t-93 -23q-41 0 -80 25.5t-39 86.5z" />
<glyph unicode="z" horiz-adv-x="1044" d="M12 53l760 832q-20 -12 -49 -19.5t-60.5 -10.5t-63.5 -3h-60h-115q-94 0 -159.5 -25.5t-98.5 -115.5l-68 16q25 104 46.5 165.5t41 93.5t40 42t42.5 10q37 0 89.5 -2t109.5 -5t114.5 -5t104.5 -2q20 0 53 1t71 2t75 4t67 7l35 -59l-786 -866q53 6 114 14q53 6 119 11 t137 5q70 0 134.5 -7t113.5 -25.5t79 -51t30 -84.5q0 -41 -18.5 -65.5t-44 -36.5t-55.5 -16t-50 -4h-27q-6 0 -10 2v12q0 74 -85 117t-232 43q-84 0 -170 -8.5t-181 -18.5z" />
<glyph unicode="{" horiz-adv-x="718" d="M45 606l23 86q49 2 93 12.5t81 35t63.5 65.5t42.5 102l88 357q35 141 124 216.5t226 75.5h127l-22 -88h-57q-86 0 -135.5 -54t-75.5 -161l-88 -350q-25 -100 -93.5 -166.5t-181.5 -85.5v-2q82 -16 122 -61t40 -115q0 -35 -12 -78l-91 -354q-16 -59 -16 -98 q0 -117 121 -117h57l-20 -88h-127q-109 0 -163 53t-54 146q0 43 12 96l90 356q6 23 8 42.5t2 35.5q0 80 -52 107.5t-132 31.5z" />
<glyph unicode="|" horiz-adv-x="649" d="M242 -492v2048h133v-2048h-133z" />
<glyph unicode="}" horiz-adv-x="718" d="M-170 -262l20 88h58q88 0 135 55.5t76 159.5l90 354q27 102 93.5 168t184.5 86v2q-84 16 -123.5 61.5t-39.5 114.5q0 18 3 37t7 39l88 350q16 61 16 103q0 113 -121 112h-57l23 88h127q217 0 217 -188q0 -49 -15 -104l-88 -357q-10 -47 -10 -73q0 -80 52 -109t132 -33 l-22 -86q-49 -2 -92 -12t-80 -34.5t-64.5 -65.5t-44.5 -105l-90 -356q-35 -133 -124 -214t-224 -81h-127z" />
<glyph unicode="~" horiz-adv-x="919" d="M236 1317q53 51 108 92q47 35 102.5 64.5t106.5 29.5t85 -20.5t62.5 -44t56 -44t64.5 -20.5q43 0 107.5 29t122.5 72l32 -48q-55 -53 -108 -94q-47 -35 -102.5 -63.5t-104.5 -28.5q-51 0 -86 20.5t-63.5 44t-56 44t-64.5 20.5q-43 0 -105.5 -27.5t-124.5 -72.5z" />
<glyph unicode="&#xa2;" horiz-adv-x="995" d="M68 348q0 113 34.5 229.5t101 213t165 163t225.5 80.5l74 293h114l-73 -291q111 -10 173 -54t62 -116q0 -59 -38 -86.5t-89 -27.5q-39 0 -74 14q4 16 6.5 33.5t2.5 34.5q0 41 -14.5 72.5t-49.5 43.5l-215 -860q10 -2 23 -2h24q53 0 113.5 13.5t126.5 37.5l20 -63 q-59 -31 -138 -57.5t-193 -30.5l-68 -275h-115l70 279q-127 20 -197.5 110t-70.5 246zM279 365q0 -76 21.5 -137.5t70.5 -96.5l200 811q-57 -23 -110 -73t-93 -124.5t-64.5 -170.5t-24.5 -209z" />
<glyph unicode="&#xa3;" horiz-adv-x="1200" d="M-25 74q66 43 138.5 102.5t133 132t99.5 155.5t39 175v21q0 11 -2 22h-252l21 86l215 14q-16 72 -33 140.5t-17 140.5q0 88 35 159.5t95.5 122t143.5 78t179 27.5q182 0 290.5 -67.5t108.5 -184.5q0 -78 -56 -111.5t-128 -33.5h-29q12 49 13 94q0 98 -53.5 156.5 t-139.5 58.5q-63 0 -111.5 -24.5t-82 -67.5t-51 -101.5t-17.5 -126.5q0 -59 12.5 -119.5t22.5 -125.5l301 22l-53 -137h-238v-6q0 -72 -21.5 -136.5t-58.5 -125t-87 -113.5t-107 -102h542l152 221h80l-146 -420h-923z" />
<glyph unicode="&#xa5;" horiz-adv-x="1435" d="M250 1350l20 84h486l-21 -84l-131 -27l191 -535l417 521l-151 41l20 84h473l-20 -84l-156 -45l-442 -547l295 18l-53 -137h-334l-29 -121l356 21l-53 -138h-332l-67 -272l180 -45l-20 -84h-551l20 84l172 45l68 272h-330l23 86l331 19l33 133h-328l23 86l270 14l-209 570 z" />
<glyph unicode="&#xa9;" horiz-adv-x="1757" d="M160 735q0 156 59.5 293t160.5 240.5t238.5 163t292.5 59.5q156 0 293 -59.5t239.5 -163t162 -240.5t59.5 -293t-59.5 -293t-162 -238.5t-239.5 -159.5t-293 -58t-293 58t-238 159.5t-160.5 238.5t-59.5 293zM283 735q0 -131 49 -245.5t134 -200.5t199.5 -135.5 t245.5 -49.5t247 49.5t201 135.5t134 200.5t49 245.5t-49 247t-134 202t-201 135t-247 49t-245.5 -49t-199.5 -135t-134 -202t-49 -247zM508 735q0 215 109.5 333t334.5 118q61 0 127 -15.5t107 -31.5v-230h-72l-53 172q-51 10 -92 11q-152 0 -222.5 -90.5t-70.5 -266.5 q0 -170 67.5 -261t219.5 -91h36q20 0 39 4l92 186h70l-31 -227q-39 -20 -102 -38.5t-135 -18.5q-209 0 -316.5 115.5t-107.5 330.5z" />
<glyph unicode="&#xad;" d="M143 481v158h449v-158h-449z" />
<glyph unicode="&#xae;" horiz-adv-x="1757" d="M160 735q0 156 59.5 293t160.5 240.5t238.5 163t292.5 59.5q156 0 293 -59.5t239.5 -163t162 -240.5t59.5 -293t-59.5 -293t-162 -238.5t-239.5 -159.5t-293 -58t-293 58t-238 159.5t-160.5 238.5t-59.5 293zM281 735q0 -131 49 -245.5t135 -200.5t200.5 -135.5 t245.5 -49.5t246 49.5t201 135.5t135 200.5t49 245.5t-49 247t-135 202t-201 135t-246 49t-245.5 -49t-200.5 -135t-135 -202t-49 -247zM526 311v58l115 26v692l-115 27v57h348q166 0 254.5 -57t88.5 -178q0 -96 -53.5 -153.5t-145.5 -77.5l190 -312l109 -26v-56h-232 l-215 381h-79v-297l114 -26v-58h-379zM791 766h71q88 0 143.5 42t55.5 128q0 78 -55.5 118t-143.5 40h-71v-328z" />
<glyph unicode="&#xb4;" horiz-adv-x="411" d="M20 1210l207 361q53 -10 103.5 -35t89.5 -72l-326 -309z" />
<glyph unicode="&#x2000;" horiz-adv-x="825" />
<glyph unicode="&#x2001;" horiz-adv-x="1652" />
<glyph unicode="&#x2002;" horiz-adv-x="825" />
<glyph unicode="&#x2003;" horiz-adv-x="1652" />
<glyph unicode="&#x2004;" horiz-adv-x="550" />
<glyph unicode="&#x2005;" horiz-adv-x="411" />
<glyph unicode="&#x2006;" horiz-adv-x="274" />
<glyph unicode="&#x2007;" horiz-adv-x="274" />
<glyph unicode="&#x2008;" horiz-adv-x="204" />
<glyph unicode="&#x2009;" horiz-adv-x="329" />
<glyph unicode="&#x200a;" horiz-adv-x="90" />
<glyph unicode="&#x2010;" d="M143 481v158h449v-158h-449z" />
<glyph unicode="&#x2011;" d="M143 481v158h449v-158h-449z" />
<glyph unicode="&#x2012;" d="M143 481v158h449v-158h-449z" />
<glyph unicode="&#x2013;" horiz-adv-x="1343" d="M147 494v131h1045v-131h-1045z" />
<glyph unicode="&#x2014;" horiz-adv-x="2367" d="M147 494v131h2069v-131h-2069z" />
<glyph unicode="&#x2018;" horiz-adv-x="475" d="M197 1042q0 63 41 131t100 131.5t124.5 119t115.5 92.5l49 -60q-92 -78 -151.5 -156.5t-88.5 -130.5l98 -96q-16 -66 -59 -106.5t-104 -40.5q-55 0 -90 30.5t-35 85.5z" />
<glyph unicode="&#x2019;" horiz-adv-x="483" d="M162 930q92 78 151.5 156.5t87.5 130.5l-98 96q16 66 59.5 106.5t104.5 40.5q55 0 90 -30.5t35 -86.5q0 -63 -41 -130.5t-100.5 -131t-125 -119t-114.5 -92.5z" />
<glyph unicode="&#x201c;" horiz-adv-x="821" d="M199 1047q0 63 41 130.5t100 131t124.5 119t115.5 92.5l49 -60q-92 -78 -151.5 -156.5t-88.5 -129.5l98 -97q-16 -66 -59 -106.5t-104 -40.5q-55 0 -90 31t-35 86zM545 1047q0 63 41 130.5t100 131t125 119t115 92.5l49 -60q-92 -78 -151.5 -156.5t-88.5 -129.5l99 -97 q-16 -66 -59.5 -106.5t-104.5 -40.5q-55 0 -90 31t-35 86z" />
<glyph unicode="&#x201d;" horiz-adv-x="829" d="M162 930q92 78 151.5 156.5t87.5 130.5l-98 96q16 66 59.5 106.5t104.5 40.5q55 0 90 -30.5t35 -86.5q0 -63 -41 -130.5t-100.5 -131t-125 -119t-114.5 -92.5zM508 930q92 78 151.5 156.5t88.5 130.5l-99 96q16 66 59.5 106.5t104.5 40.5q55 0 90 -30.5t35 -86.5 q0 -63 -41 -130.5t-100.5 -131t-125 -119t-114.5 -92.5z" />
<glyph unicode="&#x2022;" horiz-adv-x="946" d="M193 731q0 63 24.5 118.5t66.5 97.5t97 66.5t119 24.5q63 0 118.5 -24.5t97.5 -66.5t66.5 -97t24.5 -119q0 -63 -24.5 -118.5t-66.5 -97.5t-97.5 -66.5t-118.5 -24.5t-118.5 24.5t-97.5 66.5t-66.5 97.5t-24.5 118.5z" />
<glyph unicode="&#x2026;" horiz-adv-x="1419" d="M936 125q0 57 41 96t98 39t97 -39t40 -96t-40 -98t-97 -41t-98 41t-41 98zM463 125q0 57 41 96t98 39t97 -39t40 -96t-40 -98t-97 -41t-98 41t-41 98zM-10 125q0 57 41 96t98 39t97 -39t40 -96t-40 -98t-97 -41t-98 41t-41 98z" />
<glyph unicode="&#x202f;" horiz-adv-x="329" />
<glyph unicode="&#x205f;" horiz-adv-x="411" />
<glyph unicode="&#x20ac;" horiz-adv-x="1390" d="M74 498l22 86l142 8q4 25 10 58.5t14 64.5q8 37 21 73h-138l23 86l147 9q104 279 305 423t494 144q47 0 94 -7t90 -18.5t81 -27t65 -29.5l-107 -377h-82v314q-41 8 -84 13t-92 5q-188 0 -328.5 -105.5t-226.5 -322.5l533 31l-53 -138h-517q-8 -29 -16 -59 q-6 -27 -14 -59.5t-13 -65.5l506 31l-53 -137h-467v-43q0 -176 78 -259t231 -83q41 0 89.5 4t93.5 14l235 332h78l-145 -377q-68 -35 -170.5 -67.5t-210.5 -32.5q-236 0 -360 112.5t-124 335.5v32q0 15 2 32h-153z" />
<glyph unicode="&#x2122;" horiz-adv-x="3135" d="M1134 0l21 84l194 47l359 1176l-160 43l20 84h369l164 -1090l692 1090h401l-20 -84l-182 -43l-232 -1178l176 -45l-20 -84h-555l20 84l181 43l202 1022l-739 -1159h-63l-175 1161l-305 -1024l162 -43l-20 -84h-490zM164 999l108 435h1086l-109 -435h-78l-10 308h-276 l-295 -1178l166 -45l-21 -84h-553l21 84l188 45l295 1178h-278l-164 -308h-80z" />
<glyph unicode="&#xe000;" horiz-adv-x="1040" d="M0 1040h1040v-1040h-1040v1040z" />
</font>
</defs>
</svg>
